<?xml version="1.0" standalone="no"?>
<!DOCTYPE svg PUBLIC "-//W3C//DTD SVG 20010904//EN"
 "http://www.w3.org/TR/2001/REC-SVG-20010904/DTD/svg10.dtd">
<svg version="1.0" xmlns="http://www.w3.org/2000/svg"
 width="928.000000pt" height="928.000000pt" viewBox="0 0 928.000000 928.000000"
 preserveAspectRatio="xMidYMid meet">
<metadata>
Created by potrace 1.14, written by Peter Selinger 2001-2017
</metadata>
<g transform="translate(0.000000,928.000000) scale(0.100000,-0.100000)"
fill="#000000" stroke="none">
<path d="M7230 8897 c-152 -122 -457 -368 -1120 -902 -300 -241 -936 -754
-1415 -1140 -478 -386 -875 -704 -882 -708 -8 -5 -357 270 -944 743 -512 413
-935 750 -939 748 -5 -2 -341 -271 -747 -598 -406 -327 -804 -648 -885 -714
l-148 -118 2 -1476 3 -1476 966 -781 c532 -429 1276 -1030 1654 -1335 378
-305 764 -617 857 -693 93 -75 174 -135 179 -132 9 6 1105 886 3878 3113 344
277 812 652 1039 834 l412 331 0 1478 0 1478 -890 720 c-490 397 -894 721
-898 721 -4 0 -59 -42 -122 -93z"/>
</g>
</svg>
